<?xml version="1.0" standalone="no"?>
<!DOCTYPE svg PUBLIC "-//W3C//DTD SVG 20010904//EN"
 "http://www.w3.org/TR/2001/REC-SVG-20010904/DTD/svg10.dtd">
<svg xmlns="http://www.w3.org/2000/svg" viewBox="0 0 63.996154 34.951899"
 preserveAspectRatio="xMidYMid meet">
<g transform="translate(-0.000000,34.951899) scale(0.010000,-0.010000)"
fill="#a855f7" stroke="none">
<path d="M4825 3084 c-208 -260 -326 -518 -328 -720 -3 -263 -20 -285 -106
-138 -101 174 -818 579 -1276 721 -162 50 -429 -14 -872 -212 -372 -166 -621
-335 -596 -405 25 -71 -16 -97 -102 -64 -83 31 -145 -3 -146 -80 0 -75 -146
-223 -325 -329 -178 -106 -362 -183 -409 -172 -195 49 -442 -105 -550 -342
-63 -139 -115 -273 -115 -298 0 -85 413 -45 607 59 106 56 193 162 193 233 0
72 115 183 255 247 140 64 275 116 300 116 25 0 45 -248 45 -551 0 -552 0
-552 540 -790 297 -132 635 -269 750 -306 201 -64 210 -34 210 738 0 804 0
804 -375 1002 -206 109 -343 200 -303 203 39 2 230 -72 425 -165 353 -168 353
-168 353 -1000 0 -457 18 -831 40 -831 22 0 348 131 725 291 655 279 686 308
717 662 30 358 41 367 350 304 757 -155 1150 -174 1353 -65 213 114 283 453
138 666 -40 59 -220 192 -399 297 -179 104 -314 213 -300 243 14 29 111 267
215 530 105 262 158 509 118 548 -40 40 -121 -15 -180 -121 -133 -238 -575
-655 -693 -655 -48 0 -19 163 65 362 83 199 151 379 151 400 0 21 -34 36 -75
33 -41 -3 -221 -188 -400 -411z m-1025 -1084 c-302 -160 -595 -291 -650 -291
-55 0 148 131 450 291 303 160 595 291 650 291 55 0 -147 -131 -450 -291z
m-1900 150 c0 -27 -23 -50 -50 -50 -27 0 -50 23 -50 50 0 28 23 50 50 50 27 0
50 -22 50 -50z m200 -100 c0 -27 -22 -50 -50 -50 -27 0 -50 23 -50 50 0 28 23
50 50 50 28 0 50 -22 50 -50z m3200 0 c0 -27 -22 -50 -50 -50 -27 0 -50 23
-50 50 0 28 23 50 50 50 28 0 50 -22 50 -50z m-832 -369 c-32 -80 -55 -56 -60
61 -4 105 19 164 52 131 34 -33 37 -120 8 -192z"/>
</g>
</svg>
