<svg xmlns="http://www.w3.org/2000/svg" viewBox="0 0 64 64">
  <circle cx="32" cy="32" r="9" fill="#f5f2ff"/>
  <path fill="#a855f7" d="M35.6 5l2.1 7.2a21.6 21.6 0 0 1 4.2 1.7l6.6-3.6 5.2 5.2-3.6 6.6a21.6 21.6 0 0 1 1.7 4.2L59 28.4v7.2l-7.2 2.1a21.6 21.6 0 0 1-1.7 4.2l3.6 6.6-5.2 5.2-6.6-3.6a21.6 21.6 0 0 1-4.2 1.7L35.6 59h-7.2l-2.1-7.2a21.6 21.6 0 0 1-4.2-1.7l-6.6 3.6-5.2-5.2 3.6-6.6a21.6 21.6 0 0 1-1.7-4.2L5 35.6v-7.2l7.2-2.1a21.6 21.6 0 0 1 1.7-4.2l-3.6-6.6 5.2-5.2 6.6 3.6a21.6 21.6 0 0 1 4.2-1.7L28.4 5zM32 19a13 13 0 1 0 0 26 13 13 0 0 0 0-26z"/>
</svg>
